<svg id="DofE-logo-white-minimal_new" xmlns="http://www.w3.org/2000/svg" width="134.627" height="177.682" viewBox="0 0 134.627 177.682">
  <path id="Path_900" data-name="Path 900" d="M67.046,150.639c-2.41,0-3.856-1.607-3.856-3.106a1.809,1.809,0,0,1,.321-1.071c.214.75.428,2.3,2.2,2.517,3.534.482,6.373-4.605,8.461-13.923l.536-2.142c.375-1.5.8-3.32,1.071-4.231H69.938a6.756,6.756,0,0,1,1.607,4.552c0,4.338-3.427,9.211-8.033,9.211-3.8,0-4.82-3.588-4.82-5.676,0-4.82,3.8-9.532,7.658-9.586h9.8c.161-.482.428-1.5.428-1.5,1.285-4.552,3.8-7.551,7.229-7.551a3.883,3.883,0,0,1,3.963,3.32,2.145,2.145,0,0,1-.589,1.392,2.515,2.515,0,0,0-1.714-2.678c-4.712-1.607-6.319,7.069-6.319,7.069h5.087a5.811,5.811,0,0,0,3.213-.7s-.482,2.249-4.177,2.249h-4.5c-.161.482-1.125,4.07-1.125,4.07-.964,3.534-2.088,7.5-3,10.228-.428,1.66-2.624,7.551-7.6,7.551Zm-36.04,13.013h-4.82V106.513h4.659c4.445,0,23.562,1.071,23.562,28.007s-13.548,29.132-23.4,29.132Zm36.147,14.03h67.474l-6.158-19.332c-.857,2.41-4.123,4.5-9.532,4.5h-24.9V138.965H112.4c8.408,0,11.3-12.477,11.3-12.477-1.071,1.071-2.517,1.767-9.479,1.767H94.036V107.209l22.759.054c.054.054,4.231,0,4.552,0,5.462,0,8.568,3.32,8.568,5.73l3.7-19.975H67.635c1.5,1.285,5.891,4.338,5.891,9.693v14.673c-.268-.8-.589-1.553-.91-2.3-5.73-13.6-16.547-22.117-36.629-22.117-2.2,0-35.986.107-35.986.107,1.66,1.392,6.373,4.98,6.373,10.442v65.065c-.857,4.659-4.712,7.818-6.212,9.1,0,0,33.095-.054,35.665-.161s4.873-.428,6.962-.428c19.332,0,28.971-18.154,30.792-23.188v13.281c-.107,5.569-4.766,9.1-6.426,10.5Zm-.375-49c-2.3,0-4.873,5.783-4.873,9.693,0,1.178.536,2.463,1.553,2.463,2.249,0,5.034-5.355,5.034-9.532.054-1.178-.268-2.624-1.714-2.624ZM83.165,14.137c-.107.214-.536-.161-.536-.161L81.4,12.692c-.321-.214-.214-.428.107-.589.161-.054.482-.214.8-.321h0a3.7,3.7,0,0,1,.8-.268c.214-.054.375-.161.536.054a3.228,3.228,0,0,1-.482,2.57Zm-3.213,1.928A52.1,52.1,0,0,0,67.26,14.619a57.993,57.993,0,0,0-12.692,1.446c-1.071.321-1.017-.482-.536-.857a13.537,13.537,0,0,1,5.034-1.446,63.84,63.84,0,0,1,8.193-.643h0a64.587,64.587,0,0,1,8.193.643,15.956,15.956,0,0,1,5.034,1.446c.536.375.536,1.178-.535.857ZM79.2,18.9a.84.84,0,0,1-1.071-1.017c.107-.482-.536-.7-1.339-.857a92.015,92.015,0,0,0-9.479-.536,92.015,92.015,0,0,0-9.479.536c-.857.107-1.5.375-1.339.857A.827.827,0,0,1,55.425,18.9c-2.088-.428-1.607-1.607-.7-2.088,1.874-.857,4.712-1.285,12.638-1.446,7.926.214,10.764.643,12.638,1.446.8.428,1.339,1.607-.8,2.088ZM53.176,12.692l-1.232,1.285s-.375.375-.536.161a3.228,3.228,0,0,1-.482-2.57c.107-.214.321-.107.536-.054l.8.268h0a4.123,4.123,0,0,1,.8.321c.321.161.428.375.107.589Zm5.837-2.678c1.071-.268,2.088.054,2.249.7s-.589,1.392-1.66,1.714c-.161.054-.482.054-.643.107-.8.054-1.5-.268-1.607-.8-.161-.7.589-1.446,1.66-1.714Zm6.426.321s1.553-.857,1.66-.91h.214a.259.259,0,0,1,.214,0c.107.054,1.66.91,1.66.91a.261.261,0,0,1,0,.482c-.161.107-1.767,1.232-1.767,1.232h-.214s-1.607-1.071-1.767-1.232a.261.261,0,0,1,0-.482Zm7.818.375c.161-.643,1.178-.964,2.249-.7s1.821,1.017,1.66,1.714c-.107.536-.8.857-1.607.8a2.688,2.688,0,0,1-.643-.107c-1.071-.321-1.821-1.071-1.66-1.714ZM87.5,5.837,84.236,4.231V7.711L82.147,6.1,80.862,9.211a6.983,6.983,0,0,1,2.785.268,4.06,4.06,0,0,1-1.714,1.071h0c-2.517.75-5.569-.964-5.194-2.035.643-1.981,2.57-.964,2.142.321,2.785-.964,1.446-4.231-1.285-3.106A3.122,3.122,0,0,0,77.435,1.5c-1.767.321-2.088,2.088-1.607,3.909C72.08,3.427,71.758,7.5,73.1,7.818c.7-1.285,2.249-.536,1.821.482-.8,2.088-6.426,1.446-6.426-1.178,0-1.285,1.607-.857,3-.321V2.249L68.652,3.267,69.831,0H64.583l1.178,3.267L62.869,2.249V6.8c1.446-.536,3-.964,3,.321,0,2.624-5.676,3.267-6.426,1.178-.375-1.017,1.125-1.767,1.821-.482C62.6,7.5,62.28,3.427,58.585,5.409c.482-1.821.161-3.588-1.607-3.909a3.118,3.118,0,0,0-.161,4.231c-2.731-1.125-4.07,2.142-1.285,3.106-.375-1.285,1.5-2.3,2.142-.321C58.049,9.586,55,11.3,52.48,10.55h0a4.26,4.26,0,0,1-1.714-1.071,8.159,8.159,0,0,1,2.785-.268L52.266,6.1,50.177,7.711V4.231L46.911,5.837l2.945,5.409a4.4,4.4,0,0,0,.8,3.374,3.041,3.041,0,0,1,.482,2.463c-.214.7.857,1.5,1.928,1.928,4.231,1.553,13.816,1.607,14.084,1.607h0c.268,0,9.853,0,14.084-1.607,1.017-.375,2.142-1.178,1.928-1.928a3.041,3.041,0,0,1,.482-2.463,4.315,4.315,0,0,0,.8-3.374L87.5,5.837Zm7.39,44.287c-2.785,3.641-9.157,5.73-16.172,2.088,3.7-9.8,7.176-16.654,10.924-21.046C97.731,37.325,98,46.107,94.892,50.124ZM72.883,52.641a109.984,109.984,0,0,1-5.569,11.835,110.1,110.1,0,0,1-5.623-11.835c0-.054-.054-.107-.054-.161a25.779,25.779,0,0,0,5.676-6.8,25.779,25.779,0,0,0,5.676,6.8c-.054.054-.107.107-.107.161Zm-33.2-2.517c-3.106-4.016-2.892-12.8,5.248-18.957,3.749,4.391,7.229,11.192,10.924,21.046-7.015,3.641-13.334,1.553-16.172-2.088Zm63.3-25.276A14.77,14.77,0,0,0,88.734,27.2,19.93,19.93,0,0,0,76.2,25.651a35.523,35.523,0,0,1,10.282,3.481c-4.552,4.552-8.354,11.728-12.1,20.082A35.7,35.7,0,0,1,67.314,40.7a35.783,35.783,0,0,1-7.122,8.515c-3.749-8.354-7.551-15.53-12.1-20.082a35.523,35.523,0,0,1,10.282-3.481A19.57,19.57,0,0,0,45.84,27.2c-4.016-3.052-8.622-4.07-14.3-2.356a15.1,15.1,0,0,1,11.192,4.07c-8.354,5.676-12.745,16.6-7.069,24.473,5.355,7.336,14.137,6.533,21.367,2.3.054.054.054.161.107.214a63.776,63.776,0,0,0,7.015,13.6C57.46,79.363,49.106,85.039,38.343,81.4c7.818,7.711,19.6,3.267,28.918-7.818,9.264,11.085,21.046,15.53,28.864,7.818-10.71,3.588-19.118-2.088-25.812-11.942a62.528,62.528,0,0,0,7.015-13.6c.054-.054.054-.161.107-.214,7.229,4.231,16.065,5.087,21.42-2.3,5.676-7.872,1.285-18.8-7.069-24.473a15.494,15.494,0,0,1,11.192-4.016Z" fill="#fff"/>
</svg>
